<svg width="88" height="40" viewBox="0 0 88 40" fill="none" xmlns="http://www.w3.org/2000/svg">
<path d="M14.568 37.384C12.8827 37.384 11.3147 37.0747 9.864 36.456C8.43467 35.8373 7.18667 34.984 6.12 33.896C5.07467 32.7867 4.25333 31.4853 3.656 29.992C3.05867 28.4987 2.76 26.856 2.76 25.064C2.76 23.2933 3.048 21.6613 3.624 20.168C4.22133 18.6533 5.05333 17.352 6.12 16.264C7.18667 15.1547 8.43467 14.3013 9.864 13.704C11.2933 13.0853 12.8613 12.776 14.568 12.776C16.2533 12.776 17.7573 13.064 19.08 13.64C20.424 14.216 21.5547 14.9733 22.472 15.912C23.3893 16.8293 24.0507 17.832 24.456 18.92L21.064 20.52C20.552 19.24 19.7307 18.2053 18.6 17.416C17.4907 16.6053 16.1467 16.2 14.568 16.2C12.9893 16.2 11.592 16.5733 10.376 17.32C9.16 18.0667 8.21067 19.1013 7.528 20.424C6.86667 21.7467 6.536 23.2933 6.536 25.064C6.536 26.8347 6.86667 28.392 7.528 29.736C8.21067 31.0587 9.16 32.0933 10.376 32.84C11.592 33.5653 12.9893 33.928 14.568 33.928C16.1467 33.928 17.4907 33.5333 18.6 32.744C19.7307 31.9547 20.552 30.92 21.064 29.64L24.456 31.24C24.0507 32.3067 23.3893 33.3093 22.472 34.248C21.5547 35.1867 20.424 35.944 19.08 36.52C17.7573 37.096 16.2533 37.384 14.568 37.384ZM39.507 37.384C37.8217 37.384 36.2537 37.0747 34.803 36.456C33.3737 35.8373 32.115 34.984 31.027 33.896C29.9603 32.7867 29.1283 31.4853 28.531 29.992C27.9337 28.4987 27.635 26.856 27.635 25.064C27.635 23.2933 27.923 21.6613 28.499 20.168C29.0963 18.6533 29.9283 17.352 30.995 16.264C32.0617 15.1547 33.3097 14.3013 34.739 13.704C36.1683 13.0853 37.7363 12.776 39.443 12.776C41.1283 12.776 42.6323 13.064 43.955 13.64C45.299 14.216 46.4297 14.9733 47.347 15.912C48.2643 16.8293 48.9257 17.832 49.331 18.92L45.971 20.552C45.4803 19.2507 44.6697 18.2053 43.539 17.416C42.4083 16.6053 41.043 16.2 39.443 16.2C37.8643 16.2 36.467 16.5733 35.251 17.32C34.035 18.0667 33.0857 19.1013 32.403 20.424C31.7417 21.7467 31.411 23.2933 31.411 25.064C31.411 26.8347 31.7523 28.392 32.435 29.736C33.139 31.0587 34.099 32.0933 35.315 32.84C36.531 33.5653 37.9283 33.928 39.507 33.928C40.8297 33.928 42.035 33.6613 43.123 33.128C44.2323 32.5733 45.1177 31.8053 45.779 30.824C46.4403 29.8213 46.771 28.6587 46.771 27.336V25.704L48.467 27.24H39.443V24.04H50.515V26.28C50.515 28.0293 50.2163 29.5973 49.619 30.984C49.0217 32.3493 48.211 33.512 47.187 34.472C46.163 35.432 44.9897 36.1573 43.667 36.648C42.3443 37.1387 40.9577 37.384 39.507 37.384ZM62.7223 37.384C61.2289 37.384 59.8423 37.1067 58.5623 36.552C57.2823 35.976 56.1943 35.1973 55.2983 34.216C54.4023 33.2347 53.7409 32.104 53.3143 30.824L56.5143 29.48C57.0903 30.952 57.9329 32.0827 59.0423 32.872C60.1516 33.6613 61.4316 34.056 62.8823 34.056C63.7356 34.056 64.4823 33.928 65.1223 33.672C65.7623 33.3947 66.2529 33.0107 66.5943 32.52C66.9569 32.0293 67.1383 31.464 67.1383 30.824C67.1383 29.9493 66.8929 29.256 66.4023 28.744C65.9116 28.232 65.1863 27.8267 64.2263 27.528L59.7463 26.12C57.9543 25.5653 56.5889 24.7227 55.6503 23.592C54.7116 22.44 54.2423 21.096 54.2423 19.56C54.2423 18.216 54.5729 17.0427 55.2343 16.04C55.8956 15.016 56.8023 14.216 57.9543 13.64C59.1276 13.064 60.4609 12.776 61.9543 12.776C63.3836 12.776 64.6849 13.032 65.8583 13.544C67.0316 14.0347 68.0343 14.7173 68.8663 15.592C69.7196 16.4667 70.3383 17.48 70.7222 18.632L67.5863 20.008C67.1169 18.7493 66.3809 17.7787 65.3783 17.096C64.3969 16.4133 63.2556 16.072 61.9543 16.072C61.1649 16.072 60.4716 16.2107 59.8743 16.488C59.2769 16.744 58.8076 17.128 58.4663 17.64C58.1463 18.1307 57.9863 18.7067 57.9863 19.368C57.9863 20.136 58.2316 20.8187 58.7223 21.416C59.2129 22.0133 59.9596 22.4613 60.9623 22.76L65.1223 24.072C67.0209 24.648 68.4503 25.48 69.4103 26.568C70.3703 27.6347 70.8503 28.968 70.8503 30.568C70.8503 31.8907 70.4983 33.064 69.7943 34.088C69.1116 35.112 68.1623 35.9227 66.9463 36.52C65.7303 37.096 64.3223 37.384 62.7223 37.384Z" fill="#172554"/>
<path d="M5.92073 19.9237C6.73643 18.5433 7.86613 17.406 9.20448 16.6178C10.5428 15.8297 12.0462 15.4165 13.5745 15.4167C15.1029 15.4163 16.6065 15.8294 17.9451 16.6176C19.2837 17.4057 20.4135 18.5431 21.2293 19.9237L23.1411 18.6308C22.1212 16.9059 20.709 15.4849 19.0362 14.5003C17.3634 13.5157 15.4844 12.9996 13.5745 13C11.6647 12.9998 9.78598 13.516 8.1134 14.5006C6.44081 15.4852 5.0288 16.9061 4.00899 18.6308L5.92073 19.9237ZM13.5745 34.75C12.0462 34.7502 10.5428 34.3369 9.20448 33.5488C7.86613 32.7607 6.73643 31.6234 5.92073 30.2429L4.00899 31.5358C5.0288 33.2606 6.44081 34.6815 8.1134 35.6661C9.78598 36.6507 11.6647 37.1669 13.5745 37.1667C15.4844 37.1671 17.3634 36.651 19.0362 35.6664C20.709 34.6818 22.1212 33.2608 23.1411 31.5358L21.2293 30.2429C20.4135 31.6236 19.2837 32.761 17.9451 33.5491C16.6065 34.3372 15.1029 34.7504 13.5745 34.75ZM13.5745 25.0833C14.4745 25.0833 15.3377 24.7014 15.9741 24.0216C16.6105 23.3418 16.9681 22.4197 16.9681 21.4583C16.9681 20.4969 16.6105 19.5749 15.9741 18.8951C15.3377 18.2153 14.4745 17.8333 13.5745 17.8333C12.6744 17.8333 11.8112 18.2153 11.1748 18.8951C10.5384 19.5749 10.1809 20.4969 10.1809 21.4583C10.1809 22.4197 10.5384 23.3418 11.1748 24.0216C11.8112 24.7014 12.6744 25.0833 13.5745 25.0833ZM13.5745 26.2917C14.7745 26.2917 15.9254 26.8009 16.774 27.7073C17.6226 28.6137 18.0993 29.8431 18.0993 31.125H9.04965C9.04965 29.8431 9.52637 28.6137 10.3749 27.7073C11.2235 26.8009 12.3744 26.2917 13.5745 26.2917ZM6.78723 25.0833C6.78723 26.0447 6.42969 26.9668 5.79327 27.6466C5.15684 28.3264 4.29366 28.7083 3.39362 28.7083C2.49357 28.7083 1.63039 28.3264 0.993967 27.6466C0.357541 26.9668 0 26.0447 0 25.0833C0 24.1219 0.357541 23.1999 0.993967 22.5201C1.63039 21.8403 2.49357 21.4583 3.39362 21.4583C4.29366 21.4583 5.15684 21.8403 5.79327 22.5201C6.42969 23.1999 6.78723 24.1219 6.78723 25.0833ZM23.7553 28.7083C24.6554 28.7083 25.5185 28.3264 26.155 27.6466C26.7914 26.9668 27.1489 26.0447 27.1489 25.0833C27.1489 24.1219 26.7914 23.1999 26.155 22.5201C25.5185 21.8403 24.6554 21.4583 23.7553 21.4583C22.8553 21.4583 21.9921 21.8403 21.3557 22.5201C20.7192 23.1999 20.3617 24.1219 20.3617 25.0833C20.3617 26.0447 20.7192 26.9668 21.3557 27.6466C21.9921 28.3264 22.8553 28.7083 23.7553 28.7083Z" fill="#172554"/>
</svg>
